<svg width="24" height="30" viewBox="0 0 24 30" fill="none" xmlns="http://www.w3.org/2000/svg">
<path d="M15.2733 20.3574H8.72781C7.85982 20.3574 7.02739 20.6961 6.41364 21.2989C5.79988 21.9017 5.45508 22.7192 5.45508 23.5717V25.7146H7.6369V23.5717C7.6369 23.2875 7.75183 23.015 7.95642 22.8141C8.161 22.6132 8.43848 22.5003 8.72781 22.5003H15.2733C15.5626 22.5003 15.8401 22.6132 16.0447 22.8141C16.2492 23.015 16.3642 23.2875 16.3642 23.5717V25.7146H18.546V23.5717C18.546 22.7192 18.2012 21.9017 17.5874 21.2989C16.9737 20.6961 16.1412 20.3574 15.2733 20.3574Z" fill="#767676" fill-opacity="0.6"/>
<path d="M12.0004 19.2854C12.8634 19.2854 13.7071 19.0341 14.4247 18.5631C15.1423 18.0922 15.7016 17.4229 16.0318 16.6398C16.3621 15.8567 16.4485 14.995 16.2801 14.1636C16.1118 13.3323 15.6962 12.5686 15.0859 11.9692C14.4756 11.3699 13.6981 10.9617 12.8517 10.7963C12.0052 10.631 11.1278 10.7158 10.3305 11.0402C9.53311 11.3646 8.85161 11.9139 8.37212 12.6187C7.89264 13.3235 7.63672 14.1521 7.63672 14.9997C7.63672 16.1363 8.09646 17.2264 8.9148 18.0302C9.73314 18.8339 10.843 19.2854 12.0004 19.2854ZM12.0004 12.8568C12.4319 12.8568 12.8537 12.9825 13.2125 13.218C13.5713 13.4534 13.851 13.7881 14.0161 14.1797C14.1812 14.5712 14.2244 15.0021 14.1402 15.4178C14.0561 15.8334 13.8483 16.2153 13.5431 16.5149C13.238 16.8146 12.8492 17.0187 12.426 17.1014C12.0028 17.1841 11.5641 17.1416 11.1654 16.9794C10.7667 16.8173 10.426 16.5426 10.1862 16.1902C9.9465 15.8378 9.81854 15.4235 9.81854 14.9997C9.81854 14.4314 10.0484 13.8863 10.4576 13.4845C10.8667 13.0826 11.4217 12.8568 12.0004 12.8568Z" fill="#767676" fill-opacity="0.6"/>
<path d="M21.8182 3.21429H18.5455V2.14286C18.5455 1.57454 18.3156 1.02949 17.9064 0.627628C17.4972 0.225765 16.9423 0 16.3636 0H7.63636C7.05771 0 6.50276 0.225765 6.09359 0.627628C5.68442 1.02949 5.45455 1.57454 5.45455 2.14286V3.21429H2.18182C1.60316 3.21429 1.04821 3.44005 0.63904 3.84191C0.229869 4.24378 0 4.78882 0 5.35714V27.8571C0 28.4255 0.229869 28.9705 0.63904 29.3724C1.04821 29.7742 1.60316 30 2.18182 30H21.8182C22.3968 30 22.9518 29.7742 23.361 29.3724C23.7701 28.9705 24 28.4255 24 27.8571V5.35714C24 4.78882 23.7701 4.24378 23.361 3.84191C22.9518 3.44005 22.3968 3.21429 21.8182 3.21429ZM7.63636 2.14286H16.3636V6.42857H7.63636V2.14286ZM21.8182 27.8571H2.18182V5.35714H5.45455V8.57143H18.5455V5.35714H21.8182V27.8571Z" fill="#767676" fill-opacity="0.6"/>
</svg>
