<svg width="30" height="24" viewBox="0 0 30 24" fill="none" xmlns="http://www.w3.org/2000/svg">
<path d="M21.653 21.3024L20.7507 15.1536C20.6228 14.2827 20.1255 13.4815 19.3523 12.9007C18.5791 12.32 17.5833 11.9997 16.552 12H13.4446C12.4139 12.0002 11.4187 12.3208 10.6461 12.9015C9.87346 13.4822 9.37656 14.2831 9.24875 15.1536L8.34501 21.3024C8.29541 21.6402 8.33082 21.9831 8.44888 22.3084C8.56695 22.6337 8.76497 22.9338 9.0298 23.189C9.29463 23.4441 9.6202 23.6484 9.9849 23.7882C10.3496 23.928 10.7451 24.0002 11.1451 24H18.8544C19.2543 24 19.6496 23.9277 20.0141 23.7878C20.3786 23.6479 20.704 23.4436 20.9687 23.1885C21.2334 22.9334 21.4313 22.6333 21.5493 22.3081C21.6673 21.9829 21.7026 21.6401 21.653 21.3024Z" fill="#767676" fill-opacity="0.6"/>
<path d="M15.0002 7.19998C17.3362 7.19998 19.2299 5.58821 19.2299 3.59999C19.2299 1.61177 17.3362 0 15.0002 0C12.6642 0 10.7705 1.61177 10.7705 3.59999C10.7705 5.58821 12.6642 7.19998 15.0002 7.19998Z" fill="#767676" fill-opacity="0.6"/>
<path d="M3.72117 10.8C5.2785 10.8 6.54097 9.72548 6.54097 8.39999C6.54097 7.07451 5.2785 6 3.72117 6C2.16383 6 0.901367 7.07451 0.901367 8.39999C0.901367 9.72548 2.16383 10.8 3.72117 10.8Z" fill="#767676" fill-opacity="0.6"/>
<path d="M26.2788 10.8C27.8361 10.8 29.0986 9.72548 29.0986 8.39999C29.0986 7.07451 27.8361 6 26.2788 6C24.7215 6 23.459 7.07451 23.459 8.39999C23.459 9.72548 24.7215 10.8 26.2788 10.8Z" fill="#767676" fill-opacity="0.6"/>
<path d="M3.72107 14.3999H3.28964C2.62214 14.3998 1.97626 14.6013 1.46689 14.9685C0.957526 15.3357 0.617714 15.8447 0.507911 16.4051L0.038414 18.8051C-0.0289618 19.1489 -0.00751881 19.5012 0.101252 19.8372C0.210023 20.1733 0.40351 20.4852 0.668255 20.7512C0.933 21.0172 1.26265 21.2309 1.63427 21.3775C2.00589 21.524 2.41057 21.5999 2.82015 21.5999H7.95077" fill="#767676" fill-opacity="0.6"/>
<path d="M26.2785 14.3999H26.71C27.3775 14.3998 28.0233 14.6013 28.5327 14.9685C29.0421 15.3357 29.3819 15.8447 29.4917 16.4051L29.9612 18.8051C30.0286 19.1489 30.0071 19.5012 29.8983 19.8372C29.7896 20.1733 29.5961 20.4852 29.3313 20.7512C29.0666 21.0172 28.737 21.2309 28.3653 21.3775C27.9937 21.524 27.589 21.5999 27.1795 21.5999H22.0488" fill="#767676" fill-opacity="0.6"/>
</svg>
