<svg width="28" height="24" viewBox="0 0 28 24" fill="none" xmlns="http://www.w3.org/2000/svg">
<path d="M28 0H0V7.57895H1.4V21.4737C1.4 22.1437 1.695 22.7863 2.2201 23.2601C2.7452 23.7338 3.45739 24 4.2 24H23.8C24.5426 24 25.2548 23.7338 25.7799 23.2601C26.305 22.7863 26.6 22.1437 26.6 21.4737V7.57895H28V0ZM2.8 2.52632H25.2V5.05263H2.8V2.52632ZM23.8 21.4737H4.2V7.57895H23.8V21.4737ZM9.8 10.1053H18.2C18.2 10.7753 17.905 11.4179 17.3799 11.8916C16.8548 12.3654 16.1426 12.6316 15.4 12.6316H12.6C11.8574 12.6316 11.1452 12.3654 10.6201 11.8916C10.095 11.4179 9.8 10.7753 9.8 10.1053Z" fill="#3AA1FF"/>
</svg>
