<svg width="26" height="22" viewBox="0 0 26 22" fill="none" xmlns="http://www.w3.org/2000/svg">
<path d="M10.1111 0H1.44444C1.06135 0 0.693954 0.128769 0.423068 0.357981C0.152182 0.587192 0 0.898069 0 1.22222V8.55556C0 8.87971 0.152182 9.19059 0.423068 9.4198C0.693954 9.64901 1.06135 9.77778 1.44444 9.77778H10.1111C10.4942 9.77778 10.8616 9.64901 11.1325 9.4198C11.4034 9.19059 11.5556 8.87971 11.5556 8.55556V1.22222C11.5556 0.898069 11.4034 0.587192 11.1325 0.357981C10.8616 0.128769 10.4942 0 10.1111 0ZM8.66667 7.33333H2.88889V2.44444H8.66667V7.33333ZM24.5556 0H15.8889C15.5058 0 15.1384 0.128769 14.8675 0.357981C14.5966 0.587192 14.4444 0.898069 14.4444 1.22222V8.55556C14.4444 8.87971 14.5966 9.19059 14.8675 9.4198C15.1384 9.64901 15.5058 9.77778 15.8889 9.77778H24.5556C24.9386 9.77778 25.306 9.64901 25.5769 9.4198C25.8478 9.19059 26 8.87971 26 8.55556V1.22222C26 0.898069 25.8478 0.587192 25.5769 0.357981C25.306 0.128769 24.9386 0 24.5556 0ZM23.1111 7.33333H17.3333V2.44444H23.1111V7.33333ZM10.1111 12.2222H1.44444C1.06135 12.2222 0.693954 12.351 0.423068 12.5802C0.152182 12.8094 0 13.1203 0 13.4444V20.7778C0 21.1019 0.152182 21.4128 0.423068 21.642C0.693954 21.8712 1.06135 22 1.44444 22H10.1111C10.4942 22 10.8616 21.8712 11.1325 21.642C11.4034 21.4128 11.5556 21.1019 11.5556 20.7778V13.4444C11.5556 13.1203 11.4034 12.8094 11.1325 12.5802C10.8616 12.351 10.4942 12.2222 10.1111 12.2222ZM8.66667 19.5556H2.88889V14.6667H8.66667V19.5556ZM20.2222 12.2222C17.0358 12.2222 14.4444 14.4149 14.4444 17.1111C14.4444 19.8073 17.0358 22 20.2222 22C23.4087 22 26 19.8073 26 17.1111C26 14.4149 23.4087 12.2222 20.2222 12.2222ZM20.2222 19.5556C18.629 19.5556 17.3333 18.4592 17.3333 17.1111C17.3333 15.763 18.629 14.6667 20.2222 14.6667C21.8154 14.6667 23.1111 15.763 23.1111 17.1111C23.1111 18.4592 21.8154 19.5556 20.2222 19.5556Z" fill="#767676" fill-opacity="0.6"/>
</svg>
