<svg width="22" height="22" viewBox="0 0 22 22" fill="none" xmlns="http://www.w3.org/2000/svg">
<path d="M1.65 12.7368L12.65 12.738C13.0602 12.738 13.4556 12.8989 13.7593 13.1891C14.0629 13.4794 14.2529 13.8783 14.2923 14.3081L14.3 14.4737V16.7895C14.2989 20.8421 10.2124 22 7.15 22C4.1558 22 0.1815 20.8931 0.00550013 17.0558L0 16.7895V14.4737C1.96885e-05 14.0419 0.152812 13.6257 0.428581 13.306C0.70435 12.9864 1.08332 12.7864 1.4916 12.7449L1.65 12.7368ZM14.8368 12.7368H20.35C20.76 12.7368 21.1553 12.8975 21.4589 13.1876C21.7625 13.4776 21.9527 13.8762 21.9923 14.3058L22 14.4737V16.2105C21.9989 19.756 18.8562 20.8421 16.5 20.8421C15.7019 20.8441 14.9082 20.7184 14.146 20.4693C14.8643 19.6008 15.3296 18.4974 15.3923 17.1137L15.4 16.7895V14.4737C15.4 13.9017 15.235 13.3725 14.9611 12.9244L14.8368 12.7368H20.35H14.8368ZM7.15 0C8.46282 0 9.72187 0.548965 10.6502 1.52613C11.5785 2.50329 12.1 3.82861 12.1 5.21053C12.1 6.59244 11.5785 7.91776 10.6502 8.89492C9.72187 9.87209 8.46282 10.4211 7.15 10.4211C5.83718 10.4211 4.57813 9.87209 3.64982 8.89492C2.72152 7.91776 2.2 6.59244 2.2 5.21053C2.2 3.82861 2.72152 2.50329 3.64982 1.52613C4.57813 0.548965 5.83718 0 7.15 0ZM17.05 2.31579C18.0711 2.31579 19.0503 2.74276 19.7724 3.50278C20.4944 4.26279 20.9 5.2936 20.9 6.36842C20.9 7.44325 20.4944 8.47405 19.7724 9.23406C19.0503 9.99408 18.0711 10.4211 17.05 10.4211C16.0289 10.4211 15.0497 9.99408 14.3276 9.23406C13.6056 8.47405 13.2 7.44325 13.2 6.36842C13.2 5.2936 13.6056 4.26279 14.3276 3.50278C15.0497 2.74276 16.0289 2.31579 17.05 2.31579Z" fill="#767676" fill-opacity="0.6"/>
</svg>
