<svg width="22" height="22" viewBox="0 0 22 22" fill="none" xmlns="http://www.w3.org/2000/svg">
<path fill-rule="evenodd" clip-rule="evenodd" d="M19.2919 15.0857C18.9534 14.1429 18.7842 13.3571 18.615 12.4143C18.1073 12.5714 17.5996 12.5714 16.9227 12.5714L16.9853 12.9266C17.1359 13.7814 17.3035 14.7306 17.5996 15.5571L18.2765 17.2857H2.03072L2.70763 15.5571C3.04609 14.1429 3.38454 12.7286 3.38454 11.3143V7.85714C3.38454 6.91429 3.55377 6.12857 3.89222 5.34286C4.23067 4.55714 4.90758 3.77143 5.58449 3.3C6.2614 2.67143 7.10753 2.2 7.95367 2.04286C8.46135 1.72857 8.7998 1.72857 9.13826 1.72857C9.47671 1.1 9.81516 0.471429 10.1536 0C9.30748 0 8.29212 0.157143 7.44599 0.471429C6.2614 0.785714 5.24604 1.25714 4.3999 2.04286C3.55377 2.82857 2.87686 3.61429 2.36918 4.71429C1.8615 5.65714 1.69227 6.75714 1.69227 7.85714V11.3143C1.69227 12.5714 1.35382 13.8286 1.01536 15.0857L0 17.7571L0.846135 18.8571H6.76908C6.76908 19.6429 7.10753 20.4286 7.78444 21.0571C8.29212 21.6857 9.30748 22 10.1536 22C10.9998 22 11.8459 21.6857 12.5228 21.0571C13.1997 20.4286 13.5382 19.6429 13.5382 18.8571H19.4611L20.3072 17.7571L19.2919 15.0857ZM11.3382 19.9571C10.9998 20.2714 10.4921 20.4286 10.1536 20.4286C9.81516 20.4286 9.30748 20.2714 8.96903 19.9571C8.63058 19.6429 8.46135 19.3286 8.46135 18.8571H11.8459C11.8459 19.3286 11.6767 19.6429 11.3382 19.9571Z" fill="#767676" fill-opacity="0.6"/>
<ellipse cx="16.7203" cy="4.84" rx="5.27988" ry="4.84" fill="#3AA1FF"/>
</svg>
