<svg width="22" height="22" viewBox="0 0 22 22" fill="none" xmlns="http://www.w3.org/2000/svg">
<path d="M21.7095 8.20362L20.0106 9.57871C20.091 10.0453 20.1325 10.5216 20.1325 10.998C20.1325 11.4744 20.091 11.9508 20.0106 12.4173L21.7095 13.7924C21.8376 13.8963 21.9294 14.0346 21.9724 14.189C22.0155 14.3434 22.0079 14.5065 21.9507 14.6567L21.9274 14.7206C21.4597 15.9581 20.7593 17.1053 19.8602 18.1068L19.8135 18.1583C19.7044 18.2797 19.559 18.367 19.3965 18.4087C19.234 18.4503 19.062 18.4444 18.9031 18.3916L16.7944 17.682C16.0163 18.286 15.1474 18.7624 14.2084 19.0963L13.8012 21.1835C13.7705 21.3406 13.69 21.4851 13.5705 21.5978C13.451 21.7105 13.298 21.7861 13.132 21.8146L13.062 21.8269C11.7107 22.0577 10.2893 22.0577 8.93799 21.8269L8.86796 21.8146C8.70195 21.7861 8.54902 21.7105 8.4295 21.5978C8.30997 21.4851 8.2295 21.3406 8.19878 21.1835L7.78897 19.0865C6.85753 18.7525 5.99013 18.2764 5.22118 17.677L3.09691 18.3916C2.93809 18.4448 2.76593 18.451 2.60332 18.4093C2.4407 18.3676 2.29533 18.2801 2.18652 18.1583L2.13983 18.1068C1.24174 17.1046 0.541513 15.9576 0.0726296 14.7206L0.049286 14.6567C-0.0674317 14.3498 0.0285363 14.006 0.290503 13.7924L2.01014 12.4026C1.92974 11.9409 1.89083 11.4695 1.89083 11.0005C1.89083 10.529 1.92974 10.0575 2.01014 9.59836L0.290503 8.20853C0.162361 8.10468 0.0706492 7.96635 0.0275609 7.81196C-0.0155273 7.65756 -0.00794978 7.4944 0.049286 7.34418L0.0726296 7.28034C0.542094 6.04275 1.23721 4.90093 2.13983 3.89417L2.18652 3.8426C2.29559 3.72118 2.44097 3.6339 2.60349 3.59225C2.76601 3.55061 2.93804 3.55656 3.09691 3.60933L5.22118 4.32388C5.99411 3.72228 6.85782 3.24591 7.78897 2.91441L8.19878 0.81739C8.2295 0.660341 8.30997 0.515858 8.4295 0.403137C8.54902 0.290419 8.70195 0.214796 8.86796 0.186321L8.93799 0.174044C10.3017 -0.0580139 11.6983 -0.0580139 13.062 0.174044L13.132 0.186321C13.298 0.214796 13.451 0.290419 13.5705 0.403137C13.69 0.515858 13.7705 0.660341 13.8012 0.81739L14.2084 2.90459C15.147 3.23767 16.0208 3.71559 16.7944 4.31897L18.9031 3.60933C19.0619 3.55614 19.2341 3.54998 19.3967 3.59165C19.5593 3.63331 19.7047 3.72084 19.8135 3.8426L19.8602 3.89417C20.7628 4.90339 21.4579 6.04275 21.9274 7.28034L21.9507 7.34418C22.0674 7.64621 21.9715 7.98999 21.7095 8.20362ZM18.1691 12.1276C18.2339 11.7568 18.2676 11.3762 18.2676 10.9956C18.2676 10.6149 18.2339 10.2343 18.1691 9.86356L17.9979 8.87889L19.9354 7.30981C19.6417 6.66919 19.2709 6.06276 18.8305 5.50254L16.4235 6.31041L15.6091 5.67688C14.9892 5.1956 14.2992 4.81745 13.5522 4.55225L12.564 4.20111L12.0997 1.81925C11.3672 1.74067 10.6276 1.74067 9.89507 1.81925L9.43079 4.20602L8.45037 4.56207C7.71115 4.82727 7.02382 5.20542 6.4091 5.68425L5.59467 6.32023L3.17213 5.50499C2.7312 6.06731 2.36289 6.67382 2.06721 7.31226L4.02547 8.89608L3.85688 9.87829C3.79463 10.2442 3.76091 10.6223 3.76091 10.9956C3.76091 11.3712 3.79203 11.7469 3.85688 12.1128L4.02547 13.095L2.06721 14.6788C2.3603 15.3197 2.7312 15.9238 3.17213 16.4861L5.59467 15.6709L6.4091 16.3069C7.02382 16.7857 7.71115 17.1638 8.45037 17.429L9.43339 17.7802L9.89767 20.1669C10.6265 20.2455 11.3709 20.2455 12.1023 20.1669L12.5666 17.7851L13.5548 17.4339C14.2992 17.1687 14.9917 16.7906 15.6116 16.3093L16.4261 15.6758L18.8331 16.4837C19.274 15.9213 19.6423 15.3148 19.938 14.6764L18.0005 13.1073L18.1691 12.1276ZM11.0026 15.5628C8.48149 15.5628 6.43763 13.6279 6.43763 11.2411C6.43763 8.85433 8.48149 6.91938 11.0026 6.91938C13.5237 6.91938 15.5676 8.85433 15.5676 11.2411C15.5676 13.6279 13.5237 15.5628 11.0026 15.5628ZM13.0568 9.29633C12.7874 9.04052 12.4672 8.83767 12.1147 8.69944C11.7621 8.56122 11.3842 8.49035 11.0026 8.49091C10.2271 8.49091 9.49823 8.77821 8.94836 9.29633C8.67816 9.5514 8.46389 9.85454 8.31789 10.1883C8.17188 10.5221 8.09703 10.8799 8.09762 11.2411C8.09762 11.9753 8.40109 12.6653 8.94836 13.1859C9.49823 13.7065 10.2271 13.9913 11.0026 13.9913C11.7781 13.9913 12.507 13.7065 13.0568 13.1859C13.327 12.9308 13.5413 12.6277 13.6873 12.2939C13.8333 11.9602 13.9082 11.6024 13.9076 11.2411C13.9076 10.5069 13.6041 9.8169 13.0568 9.29633Z" fill="#767676" fill-opacity="0.6"/>
</svg>
