<svg width="106" height="79" viewBox="0 0 106 79" fill="none" xmlns="http://www.w3.org/2000/svg">
<path d="M0 13.1667C0 9.67465 1.3872 6.32566 3.85643 3.85643C6.32566 1.3872 9.67465 0 13.1667 0H92.1667C95.6587 0 99.0077 1.3872 101.477 3.85643C103.946 6.32566 105.333 9.67465 105.333 13.1667V46.0833H0V13.1667ZM75.7083 19.75C74.8353 19.75 73.9981 20.0968 73.3808 20.7141C72.7635 21.3314 72.4167 22.1687 72.4167 23.0417V29.625C72.4167 30.498 72.7635 31.3353 73.3808 31.9526C73.9981 32.5699 74.8353 32.9167 75.7083 32.9167H88.875C89.748 32.9167 90.5853 32.5699 91.2026 31.9526C91.8199 31.3353 92.1667 30.498 92.1667 29.625V23.0417C92.1667 22.1687 91.8199 21.3314 91.2026 20.7141C90.5853 20.0968 89.748 19.75 88.875 19.75H75.7083ZM0 59.25V65.8333C0 69.3254 1.3872 72.6743 3.85643 75.1436C6.32566 77.6128 9.67465 79 13.1667 79H92.1667C95.6587 79 99.0077 77.6128 101.477 75.1436C103.946 72.6743 105.333 69.3254 105.333 65.8333V59.25H0Z" fill="#3AA1FF"/>
</svg>
