<svg width="59" height="103" viewBox="0 0 59 103" fill="none" xmlns="http://www.w3.org/2000/svg">
<path d="M0 12.875C0 5.768 5.782 0 12.9062 0H46.0938C53.218 0 59 5.768 59 12.875V90.125C59 93.5397 57.6402 96.8145 55.2198 99.229C52.7995 101.644 49.5167 103 46.0938 103H12.9062C9.4833 103 6.20055 101.644 3.78015 99.229C1.35976 96.8145 0 93.5397 0 90.125V12.875ZM22.125 80.9286C21.147 80.9286 20.2091 81.3161 19.5175 82.006C18.826 82.6959 18.4375 83.6315 18.4375 84.6071C18.4375 85.5828 18.826 86.5184 19.5175 87.2083C20.2091 87.8982 21.147 88.2857 22.125 88.2857H36.875C37.853 88.2857 38.7909 87.8982 39.4825 87.2083C40.174 86.5184 40.5625 85.5828 40.5625 84.6071C40.5625 83.6315 40.174 82.6959 39.4825 82.006C38.7909 81.3161 37.853 80.9286 36.875 80.9286H22.125Z" fill="#3AA1FF"/>
</svg>
