<svg width="12" height="10" viewBox="0 0 12 10" fill="none" xmlns="http://www.w3.org/2000/svg">
<path d="M11.4631 0.222957C11.3278 0.130018 11.1752 0.0641584 11.0139 0.0291394C10.8527 -0.0058796 10.686 -0.0093718 10.5234 0.0188625C10.3607 0.0470968 10.2054 0.106504 10.0662 0.193691C9.92694 0.280879 9.80657 0.394137 9.71195 0.526998L4.93136 7.22903L1.79685 5.12719C1.54545 4.95838 1.23604 4.89452 0.936674 4.94966C0.637309 5.00479 0.372519 5.17441 0.200553 5.4212C0.0285874 5.66798 -0.0364673 5.97172 0.0197005 6.26559C0.0758682 6.55946 0.248657 6.81939 0.500056 6.9882L4.7017 9.80541C4.8311 9.89212 4.97735 9.95169 5.13128 9.98038C5.28521 10.0091 5.44351 10.0063 5.59629 9.97216C5.75924 9.9442 5.91498 9.88494 6.05455 9.79778C6.19413 9.71062 6.31481 9.59727 6.40968 9.46423L11.773 1.94292C11.9642 1.67435 12.0389 1.34227 11.9807 1.01965C11.9226 0.697033 11.7363 0.410276 11.4629 0.222394" fill="#3AE05E"/>
</svg>
