<svg width="48" height="48" viewBox="0 0 48 48" fill="none" xmlns="http://www.w3.org/2000/svg">
<g filter="url(#filter0_d_170_41)">
<rect x="2" width="44" height="44" rx="10" fill="#F5F6FA"/>
<path d="M8.94 23.14C8.12667 24.82 7.52667 26.1267 7.14 27.06C6.74 28.0333 6.54 28.8733 6.54 29.58L6.16 29.62C5.97333 29.62 5.82 29.4733 5.7 29.18C5.59333 28.9 5.54 28.5867 5.54 28.24C5.54 27.6933 5.70667 27 6.04 26.16C6.37333 25.32 6.94 24.1133 7.74 22.54C8.58 20.8067 9.16667 19.5333 9.5 18.72C9.88667 17.8 10.0933 16.9867 10.12 16.28V16.12C10.84 16.12 11.2 16.4867 11.2 17.22C11.2 17.6733 11.08 18.22 10.84 18.86C10.6 19.5 10.2 20.46 9.64 21.74L9.4 22.3C9.93333 22.42 10.4467 22.48 10.94 22.48C12.3933 22.5067 13.5867 22.0467 14.52 21.1C15.4667 20.1533 15.9267 19.1267 15.9 18.02C15.9 17.0467 15.5133 16.2267 14.74 15.56C13.9667 14.8933 12.9 14.56 11.54 14.56C10.4067 14.56 9.39333 14.84 8.5 15.4C7.59333 15.9467 6.88 16.6 6.36 17.36C5.85333 18.0933 5.58667 18.7267 5.56 19.26C5.56 19.5533 5.59333 19.72 5.66 19.76C5.32667 19.76 5.05333 19.66 4.84 19.46C4.64 19.2467 4.54 18.9667 4.54 18.62C4.52667 18.1267 4.68 17.6 5 17.04C5.33333 16.48 5.78667 15.9533 6.36 15.46C6.93333 14.9667 7.68 14.56 8.6 14.24C9.52 13.92 10.5 13.7733 11.54 13.8C13.3133 13.8 14.7067 14.2267 15.72 15.08C16.7333 15.92 17.24 16.9467 17.24 18.16C17.2533 18.76 17.12 19.3733 16.84 20C16.56 20.6133 16.1733 21.1733 15.68 21.68C15.1867 22.1733 14.5533 22.5733 13.78 22.88C13.02 23.1867 12.2 23.3333 11.32 23.32C10.9467 23.32 10.56 23.3 10.16 23.26C10.4133 24.98 10.9267 26.5 11.7 27.82C12.46 29.1133 13.4867 29.76 14.78 29.76C14.9 29.76 15.0267 29.7467 15.16 29.72C15.3067 29.6933 15.4333 29.66 15.54 29.62C15.6467 29.5933 15.7133 29.58 15.74 29.58C15.6467 29.9133 15.4333 30.18 15.1 30.38C14.7667 30.5933 14.3467 30.7 13.84 30.7C12.92 30.7 12.1 30.28 11.38 29.44C10.6467 28.5867 10.0733 27.5733 9.66 26.4C9.24667 25.2267 9.00667 24.14 8.94 23.14ZM24.5563 25.88L24.4963 26C24.0829 26.8 23.4896 27.4267 22.7163 27.88C21.9429 28.3333 21.0763 28.56 20.1163 28.56C19.1296 28.56 18.3096 28.2733 17.6563 27.7C16.9896 27.1133 16.6562 26.2867 16.6562 25.22C16.6296 24.26 17.0029 23.36 17.7763 22.52C18.5629 21.6667 19.5029 21.26 20.5963 21.3C21.3029 21.3 21.8496 21.4733 22.2363 21.82C22.6229 22.1533 22.8163 22.5867 22.8163 23.12C22.8563 23.8533 22.4563 24.5533 21.6163 25.22C20.7763 25.8867 19.9829 26.2067 19.2363 26.18C18.7696 26.18 18.3963 26.0333 18.1163 25.74C18.1429 26.4333 18.3496 26.9667 18.7363 27.34C19.1363 27.7 19.6563 27.88 20.2963 27.88C21.9496 27.88 23.1896 27.14 24.0163 25.66C24.1096 25.4867 24.2229 25.4 24.3563 25.4C24.5296 25.4 24.6163 25.4867 24.6163 25.66C24.6163 25.7267 24.5963 25.8 24.5563 25.88ZM22.1963 22.86C22.1963 22.6067 22.1096 22.3933 21.9362 22.22C21.7763 22.0467 21.5429 21.96 21.2363 21.96C20.5296 21.96 19.8296 22.2933 19.1363 22.96C18.4563 23.6133 18.1096 24.4267 18.0963 25.4C18.1496 25.4 18.2029 25.4067 18.2563 25.42C18.3096 25.42 18.3563 25.4267 18.3963 25.44C18.4363 25.44 18.4696 25.44 18.4963 25.44C18.5229 25.44 18.5429 25.44 18.5563 25.44C19.4096 25.4667 20.2363 25.18 21.0363 24.58C21.8363 23.98 22.2229 23.4067 22.1963 22.86ZM22.4591 31.9C22.4591 30.86 22.6924 29.5667 23.1591 28.02C23.6257 26.5 24.1857 25.0067 24.8391 23.54L25.5991 21.92C26.8657 19.28 27.4991 17.6133 27.4991 16.92V16.78C28.2857 16.78 28.6791 17.1067 28.6791 17.76C28.6791 18.1067 28.5791 18.5067 28.3791 18.96C28.2191 19.3467 27.8857 20.0667 27.3791 21.12C26.9524 21.92 26.5991 22.64 26.3191 23.28C26.3057 23.2933 26.2191 23.4933 26.0591 23.88L25.5191 25.08C26.3724 25.5333 26.7991 26.48 26.7991 27.92C26.8124 28.7467 26.6791 29.64 26.3991 30.6C26.1191 31.56 25.7257 32.38 25.2191 33.06C24.7257 33.74 24.2191 34.06 23.6991 34.02C22.8724 34.02 22.4591 33.3133 22.4591 31.9ZM25.8191 30.04C26.0324 29.2267 26.1391 28.4733 26.1391 27.78C26.1391 26.82 25.8524 26.1067 25.2791 25.64C24.7724 26.76 24.3324 28 23.9591 29.36C23.5857 30.6933 23.3991 31.7733 23.3991 32.6C23.3991 33.1867 23.5257 33.48 23.7791 33.48C24.0857 33.48 24.4391 33.14 24.8391 32.46C25.2391 31.82 25.5657 31.0133 25.8191 30.04ZM27.8563 27.44C27.8563 27.1733 27.9496 26.9333 28.1363 26.72C28.3229 26.5067 28.5229 26.4 28.7363 26.4C28.9363 26.4 29.0963 26.48 29.2163 26.64C29.3363 26.7867 29.3963 26.9667 29.3963 27.18C29.3963 27.46 29.3096 27.7 29.1363 27.9C28.9763 28.1 28.7629 28.2 28.4963 28.2C28.3229 28.2 28.1696 28.1267 28.0363 27.98C27.9163 27.8333 27.8563 27.6533 27.8563 27.44ZM31.0917 26.36C31.0917 25.88 31.2051 25.4333 31.4317 25.02C31.6717 24.6067 31.9451 24.4 32.2517 24.4C32.3051 24.4 32.3451 24.4067 32.3717 24.42C32.4117 24.4333 32.4384 24.4533 32.4517 24.48V24.5C32.3584 24.7267 32.3117 25.0333 32.3117 25.42C32.3117 26.3933 32.6251 27.2133 33.2517 27.88C33.8917 28.5467 34.7451 28.88 35.8117 28.88C36.7051 28.88 37.4317 28.6533 37.9917 28.2C38.5517 27.76 38.8317 27.1667 38.8317 26.42C38.8317 25.9133 38.6917 25.46 38.4117 25.06C38.1584 24.6867 37.8451 24.36 37.4717 24.08C37.1117 23.7867 36.5517 23.4133 35.7917 22.96C35.1251 22.56 34.5584 22.1933 34.0917 21.86C33.0784 21.1 32.5717 20.22 32.5717 19.22C32.5451 18.3667 32.8851 17.5133 33.5917 16.66C34.3117 15.8067 35.2451 15.1133 36.3917 14.58C37.5517 14.0333 38.7117 13.7733 39.8717 13.8C41.2584 13.8 42.3451 14.1533 43.1317 14.86C43.9317 15.5533 44.3317 16.3667 44.3317 17.3C44.3317 18.1533 44.0117 18.9 43.3717 19.54C42.7451 20.18 41.9717 20.5 41.0517 20.5C40.3184 20.5 39.7251 20.2933 39.2717 19.88C38.8317 19.4533 38.6117 18.8867 38.6117 18.18C38.6117 17.6733 38.7117 17.32 38.9117 17.12C38.9251 17.1333 38.9917 17.3133 39.1117 17.66C39.2451 18.02 39.5117 18.3667 39.9117 18.7C40.3384 19.0467 40.8317 19.22 41.3917 19.22C42.0051 19.22 42.4517 19.04 42.7317 18.68C43.0251 18.32 43.1717 17.8667 43.1717 17.32C43.1717 16.56 42.8784 15.9133 42.2917 15.38C41.7051 14.8467 40.8917 14.58 39.8517 14.58C38.9851 14.5667 38.0717 14.7533 37.1117 15.14C36.1517 15.5133 35.3451 16.0333 34.6917 16.7C34.0517 17.3667 33.7517 18.0467 33.7917 18.74C33.7917 19.2067 33.9251 19.6333 34.1917 20.02C34.5917 20.58 35.4651 21.2467 36.8117 22.02C37.5451 22.42 38.1517 22.8 38.6317 23.16C39.7384 23.9333 40.2917 24.8867 40.2917 26.02C40.2917 27.1133 39.8184 28.0267 38.8717 28.76C37.9251 29.4933 36.8384 29.86 35.6117 29.86C34.4117 29.86 33.3584 29.5067 32.4517 28.8C31.5451 28.1067 31.0917 27.2933 31.0917 26.36Z" fill="#3AA1FF"/>
</g>
<defs>
<filter id="filter0_d_170_41" x="0" y="0" width="48" height="48" filterUnits="userSpaceOnUse" color-interpolation-filters="sRGB">
<feFlood flood-opacity="0" result="BackgroundImageFix"/>
<feColorMatrix in="SourceAlpha" type="matrix" values="0 0 0 0 0 0 0 0 0 0 0 0 0 0 0 0 0 0 127 0" result="hardAlpha"/>
<feOffset dy="2"/>
<feGaussianBlur stdDeviation="1"/>
<feComposite in2="hardAlpha" operator="out"/>
<feColorMatrix type="matrix" values="0 0 0 0 0 0 0 0 0 0 0 0 0 0 0 0 0 0 0.1 0"/>
<feBlend mode="normal" in2="BackgroundImageFix" result="effect1_dropShadow_170_41"/>
<feBlend mode="normal" in="SourceGraphic" in2="effect1_dropShadow_170_41" result="shape"/>
</filter>
</defs>
</svg>
