<svg width="222" height="80" viewBox="0 0 222 80" fill="none" xmlns="http://www.w3.org/2000/svg">
<g filter="url(#filter0_d_148_103)">
<path d="M2.5 17C2.5 14.2386 4.73858 12 7.5 12H214.5C217.261 12 219.5 14.2386 219.5 17V71C219.5 73.7614 217.261 76 214.5 76H7.5C4.73858 76 2.5 73.7614 2.5 71V17Z" fill="white" shape-rendering="crispEdges"/>
<path d="M7.5 11.5C4.46243 11.5 2 13.9624 2 17V71C2 74.0376 4.46244 76.5 7.5 76.5H214.5C217.538 76.5 220 74.0376 220 71V17C220 13.9624 217.538 11.5 214.5 11.5H7.5Z" stroke="black" stroke-opacity="0.1" shape-rendering="crispEdges"/>
</g>
<path d="M56.3 31.1C56.3 30.22 56.62 29.4 57.26 28.64C57.94 27.88 58.74 27.5 59.66 27.5C60.3 27.5 60.8 27.72 61.16 28.16C61.52 28.6 61.7 29.16 61.7 29.84C61.7 30.76 61.4 31.58 60.8 32.3C60.24 32.98 59.52 33.32 58.64 33.32C57.92 33.32 57.34 33.12 56.9 32.72C56.5 32.28 56.3 31.74 56.3 31.1ZM49.76 51.74C49.76 50.42 49.96 49.16 50.36 47.96C50.8 46.72 51.54 45.04 52.58 42.92C53.9 40.24 54.58 38.36 54.62 37.28V36.86C55.62 36.86 56.44 37.16 57.08 37.76C57.72 38.32 58.04 39.08 58.04 40.04C58.04 41.28 57.24 43.42 55.64 46.46C53.96 49.7 53.12 51.92 53.12 53.12C53.12 54 53.4 54.68 53.96 55.16C54.52 55.64 55.26 55.88 56.18 55.88C57.58 55.88 58.82 55.36 59.9 54.32C60.98 53.24 62.2 51.42 63.56 48.86C63.8 48.42 64.1 48.2 64.46 48.2C65.02 48.2 65.3 48.44 65.3 48.92C65.3 49.16 65.24 49.4 65.12 49.64C63.76 52.44 62.38 54.46 60.98 55.7C59.62 56.9 58.04 57.5 56.24 57.5C51.92 57.5 49.76 55.58 49.76 51.74ZM63.5352 50.18C63.5352 46.3 65.0552 41.62 68.0952 36.14H67.0752C65.1952 36.14 64.2552 35.94 64.2552 35.54C64.2552 35.18 64.5952 34.94 65.2752 34.82C65.9552 34.7 67.1752 34.64 68.9352 34.64C69.7752 33.12 70.5352 31.56 71.2152 29.96C71.8952 28.28 72.2752 26.92 72.3552 25.88V25.46C74.7952 25.46 76.0152 26.5 76.0152 28.58C76.0152 29.66 75.4552 31.3 74.3352 33.5L73.6752 34.76H75.2352C77.3152 34.76 78.3552 34.96 78.3552 35.36C78.3552 35.96 76.5752 36.26 73.0152 36.26C71.4552 39.02 70.1352 41.96 69.0552 45.08C67.9752 48.2 67.4352 50.72 67.4352 52.64C67.4352 54.8 68.3752 55.88 70.2552 55.88C71.7752 55.88 73.1152 55.34 74.2752 54.26C75.4352 53.18 76.6952 51.36 78.0552 48.8C78.2952 48.4 78.5952 48.2 78.9552 48.2C79.5152 48.2 79.7952 48.44 79.7952 48.92C79.7952 49.16 79.7352 49.4 79.6152 49.64C78.2552 52.44 76.8752 54.46 75.4752 55.7C74.0752 56.9 72.3752 57.5 70.3752 57.5C68.3752 57.5 66.7352 56.88 65.4552 55.64C64.1752 54.36 63.5352 52.54 63.5352 50.18ZM92.4805 53.78C90.8405 56.26 88.5205 57.5 85.5205 57.5C83.1205 57.5 81.1805 56.8 79.7005 55.4C78.2205 54 77.4805 51.96 77.4805 49.28C77.3605 45.64 78.6805 42.5 81.4405 39.86C84.2405 37.22 87.1005 35.94 90.0205 36.02C91.4205 36.02 92.6205 36.32 93.6205 36.92C94.6605 37.52 95.3005 38.34 95.5405 39.38C96.0605 38.02 97.0205 37.34 98.4205 37.34C99.6205 37.34 100.56 37.92 101.24 39.08C100.24 40.48 99.0605 42.7 97.7005 45.74C96.3405 48.78 95.7005 51.16 95.7805 52.88C95.7805 53.84 96.0205 54.58 96.5005 55.1C96.9805 55.62 97.5605 55.88 98.2405 55.88C99.8005 55.88 101.14 55.38 102.26 54.38C103.38 53.34 104.62 51.5 105.98 48.86C106.18 48.42 106.48 48.2 106.88 48.2C107.44 48.2 107.72 48.44 107.72 48.92C107.72 49.16 107.66 49.4 107.54 49.64C106.18 52.44 104.78 54.46 103.34 55.7C101.9 56.94 100.22 57.56 98.3005 57.56C95.3005 57.56 93.3605 56.3 92.4805 53.78ZM94.5205 43.16C94.5205 41.36 94.1405 40.02 93.3805 39.14C92.6205 38.22 91.6405 37.76 90.4405 37.76C88.4405 37.68 86.4605 38.92 84.5005 41.48C82.5805 44.04 81.6405 46.9 81.6805 50.06C81.6805 53.98 83.0405 55.94 85.7605 55.94C88.0005 56.06 90.0405 54.68 91.8805 51.8C93.7205 48.92 94.6005 46.04 94.5205 43.16ZM115.977 68.48C115.977 66.84 116.697 63.86 118.137 59.54L119.397 55.7C118.117 56.9 116.457 57.5 114.417 57.5C111.737 57.5 109.657 56.7 108.177 55.1C106.697 53.5 105.957 51.44 105.957 48.92C105.957 45.6 107.117 42.62 109.437 39.98C111.757 37.3 114.697 35.96 118.257 35.96C120.897 35.96 122.937 37.1 124.377 39.38C124.537 38.78 124.877 38.32 125.397 38C125.917 37.64 126.497 37.46 127.137 37.46C128.417 37.46 129.397 38 130.077 39.08C127.437 43.56 124.997 49.26 122.757 56.18C125.277 56.06 127.377 55.38 129.057 54.14C130.737 52.9 132.337 51.02 133.857 48.5C134.057 48.18 134.317 48.02 134.637 48.02C135.197 48.02 135.477 48.28 135.477 48.8C135.477 49.04 135.417 49.28 135.297 49.52C133.977 52.12 132.197 54.16 129.957 55.64C127.717 57.08 125.117 57.86 122.157 57.98C120.397 63.86 119.517 68.42 119.517 71.66V72.08C118.237 72.08 117.317 71.78 116.757 71.18C116.237 70.62 115.977 69.72 115.977 68.48ZM123.297 43.34C123.297 41.62 122.857 40.26 121.977 39.26C121.137 38.22 119.997 37.7 118.557 37.7C116.277 37.7 114.237 38.86 112.437 41.18C110.637 43.5 109.737 46.16 109.737 49.16C109.737 51.2 110.157 52.82 110.997 54.02C111.877 55.22 113.037 55.82 114.477 55.82C116.757 55.82 118.797 54.56 120.597 52.04C122.397 49.48 123.297 46.58 123.297 43.34ZM132.472 51.92C132.472 49.8 133.312 47.18 134.992 44.06C136.512 41.06 137.272 38.76 137.272 37.16V36.74C138.352 36.74 139.212 37.04 139.852 37.64C140.532 38.2 140.872 38.96 140.872 39.92C140.872 40.96 140.132 42.94 138.652 45.86C136.932 49.22 136.072 51.68 136.072 53.24C136.072 54 136.352 54.64 136.912 55.16C137.472 55.64 138.212 55.88 139.132 55.88C141.332 55.88 143.012 54.92 144.172 53C145.812 50.28 147.472 46.36 149.152 41.24C149.712 39.48 149.992 38.12 149.992 37.16V36.74C151.072 36.74 151.932 37.04 152.572 37.64C153.252 38.2 153.592 38.96 153.592 39.92C153.592 41 152.832 43.08 151.312 46.16C149.632 49.44 148.792 51.84 148.792 53.36C148.792 54.08 149.012 54.68 149.452 55.16C149.932 55.64 150.532 55.88 151.252 55.88C152.772 55.88 154.112 55.36 155.272 54.32C156.432 53.24 157.692 51.4 159.052 48.8C159.292 48.4 159.592 48.2 159.952 48.2C160.512 48.2 160.792 48.44 160.792 48.92C160.792 49.16 160.732 49.4 160.612 49.64C159.132 52.52 157.712 54.56 156.352 55.76C154.992 56.92 153.332 57.5 151.372 57.5C149.932 57.5 148.672 57.16 147.592 56.48C146.512 55.8 145.812 54.92 145.492 53.84C143.572 56.32 141.332 57.56 138.772 57.56C134.572 57.56 132.472 55.68 132.472 51.92ZM159.043 47.72C159.043 44.76 160.203 42.06 162.523 39.62C164.843 37.14 167.663 35.9 170.983 35.9C173.063 35.9 174.663 36.42 175.783 37.46C176.943 38.46 177.523 39.76 177.523 41.36C177.643 43.56 176.443 45.66 173.923 47.66C171.443 49.66 169.083 50.62 166.843 50.54C165.403 50.54 164.243 50.1 163.363 49.22C163.363 50.9 164.103 52.4 165.583 53.72C167.063 55 168.763 55.64 170.683 55.64C172.003 55.64 173.303 55.34 174.583 54.74C175.863 54.14 176.883 53.56 177.643 53L178.783 52.1C178.983 52.1 179.083 52.26 179.083 52.58C179.083 53.58 178.223 54.66 176.503 55.82C174.783 56.98 172.643 57.56 170.083 57.56C166.603 57.56 163.883 56.62 161.923 54.74C160.003 52.82 159.043 50.48 159.043 47.72ZM175.663 40.46C175.663 39.7 175.423 39.08 174.943 38.6C174.503 38.12 173.823 37.88 172.903 37.88C170.663 37.88 168.543 38.86 166.543 40.82C164.543 42.74 163.483 45.2 163.363 48.2C163.523 48.2 163.683 48.22 163.843 48.26C164.003 48.26 164.143 48.28 164.263 48.32C164.383 48.32 164.483 48.32 164.563 48.32C164.643 48.32 164.703 48.32 164.743 48.32C167.343 48.36 169.823 47.5 172.183 45.74C174.583 43.94 175.743 42.18 175.663 40.46Z" fill="#3AA1FF"/>
<defs>
<filter id="filter0_d_148_103" x="0.5" y="11" width="221" height="68" filterUnits="userSpaceOnUse" color-interpolation-filters="sRGB">
<feFlood flood-opacity="0" result="BackgroundImageFix"/>
<feColorMatrix in="SourceAlpha" type="matrix" values="0 0 0 0 0 0 0 0 0 0 0 0 0 0 0 0 0 0 127 0" result="hardAlpha"/>
<feOffset dy="1"/>
<feGaussianBlur stdDeviation="0.5"/>
<feComposite in2="hardAlpha" operator="out"/>
<feColorMatrix type="matrix" values="0 0 0 0 0 0 0 0 0 0 0 0 0 0 0 0 0 0 0.05 0"/>
<feBlend mode="normal" in2="BackgroundImageFix" result="effect1_dropShadow_148_103"/>
<feBlend mode="normal" in="SourceGraphic" in2="effect1_dropShadow_148_103" result="shape"/>
</filter>
</defs>
</svg>
