<svg width="7" height="5" viewBox="0 0 7 5" fill="none" xmlns="http://www.w3.org/2000/svg">
<path d="M6.84592 0.1912C6.74723 0.0687746 6.6134 -3.37976e-08 6.47386 -4.5997e-08C6.33431 -5.81963e-08 6.20048 0.0687745 6.10179 0.191199L3.49682 3.42372L0.891854 0.191199C0.792601 0.0722436 0.659667 0.0064212 0.521684 0.00790907C0.383701 0.00939694 0.251709 0.078076 0.154137 0.199154C0.0565653 0.320231 0.00121971 0.48402 2.09236e-05 0.655244C-0.00117834 0.826467 0.0518655 0.991425 0.147727 1.11459L3.12476 4.8088C3.22345 4.93123 3.35728 5 3.49682 5C3.63637 5 3.7702 4.93123 3.86889 4.8088L6.84592 1.11459C6.94458 0.992127 7 0.826055 7 0.652894C7 0.479733 6.94458 0.313661 6.84592 0.1912Z" fill="#3D3D3D"/>
</svg>
