<svg width="14" height="12" viewBox="0 0 14 12" fill="none" xmlns="http://www.w3.org/2000/svg">
<path d="M6.53708 1.3165C6.69707 0.894502 7.30255 0.894502 7.46304 1.3165L8.49799 4.18345C8.57049 4.37345 8.75498 4.49995 8.96097 4.49995H11.5044C11.9743 4.49995 12.1793 5.08494 11.8098 5.37143L9.99993 6.99991C9.91885 7.06224 9.8596 7.14864 9.83068 7.24673C9.80176 7.34482 9.80465 7.44956 9.83893 7.5459L10.4999 10.3474C10.6609 10.7974 10.1399 11.1838 9.74594 10.9069L7.28755 9.34687C7.20336 9.2877 7.10296 9.25595 7.00006 9.25595C6.89716 9.25595 6.79676 9.2877 6.71257 9.34687L4.25418 10.9069C3.8607 11.1838 3.33922 10.7969 3.50022 10.3474L4.16119 7.5459C4.19547 7.44956 4.19836 7.34482 4.16944 7.24673C4.14052 7.14864 4.08127 7.06224 4.00019 6.99991L2.19027 5.37143C1.82029 5.08494 2.02628 4.49995 2.49526 4.49995H5.03865C5.13879 4.50028 5.23667 4.4702 5.31934 4.41368C5.40202 4.35717 5.46558 4.27688 5.50163 4.18345L6.53658 1.3165H6.53708Z" stroke="#B13837" stroke-width="2" stroke-linecap="round" stroke-linejoin="round"/>
</svg>
