<svg width="40" height="35" viewBox="0 0 40 35" fill="none" xmlns="http://www.w3.org/2000/svg">
<path d="M25.4938 23.3217C27.4253 23.3217 28.9929 24.8454 28.9929 26.7227L28.9909 28.5924C29.2248 32.8486 25.9696 35 20.1291 35C14.3105 35 10.9973 32.8816 10.9973 28.6662V26.7227C10.9973 24.8454 12.5649 23.3217 14.4964 23.3217H25.4938ZM3.49914 13.6043H12.249C11.9001 14.9239 11.9135 16.3094 12.2879 17.6224C12.6623 18.9353 13.3845 20.1299 14.3825 21.0867L14.7064 21.3801L14.4964 21.3782C13.2964 21.3778 12.1292 21.759 11.1728 22.4636C10.2165 23.1682 9.52354 24.1575 9.19975 25.2807L9.13176 25.2826C3.31319 25.2826 0 23.1642 0 18.9489V17.0054C0 15.128 1.56762 13.6043 3.49914 13.6043ZM36.4911 13.6043C38.4226 13.6043 39.9902 15.128 39.9902 17.0054L39.9882 18.875C40.2221 23.1312 36.9669 25.2826 31.1264 25.2826L30.7885 25.2787C30.481 24.2201 29.8458 23.2792 28.969 22.5838C28.0921 21.8883 27.0163 21.4722 25.8877 21.3918L25.4938 21.3782L25.2838 21.3801C26.3938 20.4326 27.2112 19.204 27.6451 17.8314C28.079 16.4589 28.1123 14.9961 27.7412 13.6063L36.4911 13.6043ZM19.9951 9.71736C20.7828 9.71736 21.5629 9.86817 22.2906 10.1612C23.0184 10.4542 23.6797 10.8836 24.2367 11.4251C24.7937 11.9665 25.2356 12.6092 25.537 13.3166C25.8385 14.024 25.9936 14.7821 25.9936 15.5478C25.9936 16.3134 25.8385 17.0716 25.537 17.779C25.2356 18.4864 24.7937 19.1291 24.2367 19.6705C23.6797 20.2119 23.0184 20.6414 22.2906 20.9344C21.5629 21.2274 20.7828 21.3782 19.9951 21.3782C18.4042 21.3782 16.8784 20.7639 15.7535 19.6705C14.6286 18.5771 13.9966 17.0941 13.9966 15.5478C13.9966 14.0015 14.6286 12.5185 15.7535 11.4251C16.8784 10.3316 18.4042 9.71736 19.9951 9.71736ZM8.9978 0C10.5887 0 12.1145 0.614275 13.2394 1.70769C14.3643 2.80111 14.9963 4.28409 14.9963 5.83042C14.9963 7.37674 14.3643 8.85973 13.2394 9.95315C12.1145 11.0466 10.5887 11.6608 8.9978 11.6608C7.40689 11.6608 5.88114 11.0466 4.75619 9.95315C3.63125 8.85973 2.99926 7.37674 2.99926 5.83042C2.99926 4.28409 3.63125 2.80111 4.75619 1.70769C5.88114 0.614275 7.40689 0 8.9978 0ZM30.9924 0C32.5833 0 34.1091 0.614275 35.234 1.70769C36.3589 2.80111 36.9909 4.28409 36.9909 5.83042C36.9909 7.37674 36.3589 8.85973 35.234 9.95315C34.1091 11.0466 32.5833 11.6608 30.9924 11.6608C29.4015 11.6608 27.8757 11.0466 26.7508 9.95315C25.6259 8.85973 24.9939 7.37674 24.9939 5.83042C24.9939 4.28409 25.6259 2.80111 26.7508 1.70769C27.8757 0.614275 29.4015 0 30.9924 0Z" fill="#3AA1FF"/>
</svg>
