<svg width="44" height="32" viewBox="0 0 44 32" fill="none" xmlns="http://www.w3.org/2000/svg">
<path d="M26.4 20.5714V25.1429H33V32H37.4V25.1429H44V20.5714H37.4V13.7143H33V20.5714H26.4ZM26.334 12.8229C26.07 9.78286 23.298 6.78857 19.8 6.85714C16.06 6.92571 13.2 9.82857 13.2 13.7143C13.2 17.6 16.06 20.4343 19.8 20.5714C20.636 20.5714 21.494 20.3886 22.308 20.0457C22.902 17.5314 23.892 15.1543 26.334 12.8229ZM22 22.8571H8.8C8.8 21.6447 8.33643 20.482 7.51127 19.6247C6.68611 18.7673 5.56695 18.2857 4.4 18.2857V9.14286C6.842 9.14286 8.8 7.10857 8.8 4.57143H30.8C30.8 5.78385 31.2636 6.94661 32.0887 7.80392C32.9139 8.66123 34.033 9.14286 35.2 9.14286V9.28C36.674 9.28 38.148 9.55429 39.6 10.0571V0H0V27.4286H22.704C22.2365 25.9534 21.9989 24.4102 22 22.8571Z" fill="#3AA1FF"/>
</svg>
