<svg width="36" height="36" viewBox="0 0 36 36" fill="none" xmlns="http://www.w3.org/2000/svg">
<path d="M35.2764 16.2371C35.0598 16.0736 34.8091 15.9609 34.5431 15.9073C34.277 15.8537 34.0023 15.8606 33.7392 15.9275C33.303 16.0494 32.8529 16.1147 32.4 16.1219C29.4228 16.1219 27 13.6991 26.9946 10.8353C27.0036 10.7741 27.0234 10.5905 27.0252 10.5293C27.037 10.2479 26.9824 9.96772 26.8659 9.7113C26.7494 9.45487 26.5742 9.22944 26.3545 9.0532C26.1348 8.87696 25.8768 8.75484 25.6012 8.69671C25.3256 8.63858 25.0402 8.64606 24.768 8.71855C24.3228 8.84544 23.8629 8.91381 23.4 8.92195C20.4229 8.92195 18.0001 6.49916 18.0001 3.52197C18.0001 3.13137 18.0559 2.72277 18.1783 2.23317C18.2476 1.95371 18.2488 1.6617 18.1819 1.38166C18.115 1.10162 17.9818 0.841717 17.7937 0.623769C17.6056 0.405821 17.3679 0.236188 17.1006 0.129109C16.8333 0.0220293 16.5443 -0.0193712 16.2577 0.00838176C11.7999 0.423857 7.65915 2.49285 4.65033 5.80815C1.64152 9.12344 -0.0173837 13.4449 0.000137388 17.9219C0.000137388 27.8471 8.07491 35.9218 18.0001 35.9218C27.9252 35.9218 36 27.8471 36 17.9219C36 17.8337 35.9946 17.7473 35.9874 17.6339C35.9813 17.3627 35.9143 17.0962 35.7912 16.8544C35.6681 16.6126 35.4922 16.4016 35.2764 16.2371ZM18.0001 32.3219C10.0603 32.3219 3.60012 25.8617 3.60012 17.9219C3.58728 14.7238 4.64449 11.6133 6.60351 9.08547C8.56253 6.5576 11.3108 4.75761 14.4109 3.97197C14.5289 6.27728 15.5272 8.44938 17.1998 10.0403C18.8724 11.6311 21.0917 12.5194 23.4 12.5219L23.5818 12.5201C23.9949 14.533 25.0834 16.3443 26.6669 17.6537C28.2504 18.9632 30.2338 19.6923 32.2884 19.7201C31.3992 26.8157 25.3314 32.3219 18.0001 32.3219Z" fill="#3AA1FF"/>
<path d="M18.9002 19.7218C20.3913 19.7218 21.6002 18.5129 21.6002 17.0218C21.6002 15.5306 20.3913 14.3218 18.9002 14.3218C17.409 14.3218 16.2002 15.5306 16.2002 17.0218C16.2002 18.5129 17.409 19.7218 18.9002 19.7218Z" fill="#3AA1FF"/>
<path d="M11.7 14.3219C13.1912 14.3219 14.4 13.113 14.4 11.6219C14.4 10.1307 13.1912 8.92188 11.7 8.92188C10.2088 8.92188 9 10.1307 9 11.6219C9 13.113 10.2088 14.3219 11.7 14.3219Z" fill="#3AA1FF"/>
<path d="M9.90019 21.522C11.3913 21.522 12.6002 20.3132 12.6002 18.8221C12.6002 17.3309 11.3913 16.1221 9.90019 16.1221C8.40902 16.1221 7.2002 17.3309 7.2002 18.8221C7.2002 20.3132 8.40902 21.522 9.90019 21.522Z" fill="#3AA1FF"/>
<path d="M24.2996 26.9215C25.7908 26.9215 26.9996 25.7126 26.9996 24.2215C26.9996 22.7303 25.7908 21.5215 24.2996 21.5215C22.8084 21.5215 21.5996 22.7303 21.5996 24.2215C21.5996 25.7126 22.8084 26.9215 24.2996 26.9215Z" fill="#3AA1FF"/>
<path d="M15.2996 28.7218C16.7908 28.7218 17.9996 27.5129 17.9996 26.0218C17.9996 24.5306 16.7908 23.3218 15.2996 23.3218C13.8084 23.3218 12.5996 24.5306 12.5996 26.0218C12.5996 27.5129 13.8084 28.7218 15.2996 28.7218Z" fill="#3AA1FF"/>
</svg>
